<svg width="38" height="33" viewBox="0 0 38 33" fill="none" xmlns="http://www.w3.org/2000/svg">
<path d="M1.91597 33C0.638656 27.3122 0 22.3756 0 18.1902C0 12.1805 1.38375 7.67317 4.15126 4.66829C6.91877 1.5561 10.9636 0 16.2857 0V6.43903C13.5182 6.43903 11.4958 7.19025 10.2185 8.69268C9.04762 10.1951 8.46218 12.4488 8.46218 15.4537V19.1561H16.4454V33H1.91597ZM23.4706 33C22.1933 27.3122 21.5546 22.3756 21.5546 18.1902C21.5546 12.1805 22.9384 7.67317 25.7059 4.66829C28.4734 1.5561 32.5182 0 37.8403 0V6.43903C35.0728 6.43903 33.0504 7.19025 31.7731 8.69268C30.6022 10.1951 30.0168 12.4488 30.0168 15.4537V19.1561H38V33H23.4706Z" fill="#E2E2E2"/>
</svg>
