<svg width="36" height="34" viewBox="0 0 36 34" fill="none" xmlns="http://www.w3.org/2000/svg">
<rect x="1" y="1" width="34" height="32" rx="6" fill="white" fill-opacity="0.1"/>
<g clip-path="url(#clip0_503_18971)">
<path d="M10.25 5.30005H25.75C28.1 5.30005 30 7.20003 30 9.55007V24.4501C30 26.8001 28.1 28.7001 25.75 28.7001H10.25C7.89998 28.7001 6 26.8001 6 24.45V9.55007C6 7.20003 7.89998 5.30005 10.25 5.30005Z" fill="#390000"/>
<path d="M17.6299 19.3401H13.9099L13.15 21.6901C13.1299 21.7801 13.05 21.8401 12.96 21.8301H11.08C10.9699 21.8301 10.9399 21.7701 10.9699 21.6501L14.1899 12.3801C14.2199 12.2801 14.2499 12.1701 14.2899 12.0501C14.3299 11.8401 14.3499 11.6201 14.3499 11.4001C14.3399 11.35 14.3799 11.3001 14.4299 11.29H14.4599H17.0199C17.0999 11.29 17.1399 11.32 17.1499 11.3701L20.7999 21.6701C20.8299 21.7801 20.7999 21.83 20.6999 21.83H18.6099C18.5399 21.84 18.4699 21.7901 18.4499 21.72L17.6299 19.3401ZM14.4899 17.3101H17.0299L15.7499 13.1401L14.4899 17.3101Z" fill="#FF9A00"/>
<path d="M22.9796 13.0001C22.6496 13.01 22.3296 12.8801 22.0896 12.65C21.8596 12.4001 21.7396 12.0701 21.7496 11.73C21.7396 11.39 21.8696 11.07 22.1096 10.84C22.3496 10.61 22.6696 10.49 22.9996 10.49C23.3896 10.49 23.6896 10.61 23.9096 10.84C24.1296 11.08 24.2496 11.4 24.2396 11.73C24.2496 12.07 24.1296 12.4 23.8896 12.65C23.6596 12.89 23.3196 13.02 22.9796 13.0001Z" fill="#FF9A00"/>
<path d="M21.8604 21.68V13.98C21.8604 13.88 21.9003 13.84 21.9903 13.84H23.9703C24.0603 13.84 24.1003 13.89 24.1003 13.98V21.68C24.1003 21.79 24.0603 21.84 23.9703 21.84H22.0104C21.9103 21.84 21.8604 21.78 21.8604 21.68Z" fill="#FF9A00"/>
</g>
<rect x="0.5" y="0.5" width="35" height="33" rx="6.5" stroke="white" stroke-opacity="0.2"/>
<defs>
<clipPath id="clip0_503_18971">
<rect width="24" height="24" fill="white" transform="translate(6 5)"/>
</clipPath>
</defs>
</svg>
