<svg width="36" height="34" viewBox="0 0 36 34" fill="none" xmlns="http://www.w3.org/2000/svg">
<rect x="1" y="1" width="34" height="32" rx="6" fill="white" fill-opacity="0.1"/>
<path opacity="0.8" d="M8.66173 17.172H12.6697V16.068H8.66173V13.728H13.1497V12.504H7.26973V21H13.2697V19.776H8.66173V17.172ZM18.0873 13.692C19.3833 13.692 20.3073 14.424 20.3073 15.456C20.3193 16.476 19.3833 17.208 18.0873 17.208H16.4313V13.692H18.0873ZM18.3153 18.408C20.3193 18.408 21.7473 17.172 21.7473 15.456C21.7473 13.74 20.3193 12.504 18.3273 12.504H15.0393V21H16.4313V18.408H18.3153ZM30.0785 18.456C30.0785 16.548 28.3625 16.26 26.7785 16.044C25.5545 15.876 24.5705 15.72 24.5705 14.748C24.5705 13.968 25.3145 13.392 26.4665 13.392C27.6785 13.392 28.5545 14.112 28.5545 15.12H29.8865C29.8865 13.428 28.4465 12.204 26.4545 12.204C24.4745 12.204 23.1425 13.32 23.1425 14.892C23.1425 16.848 24.7745 17.136 26.3705 17.352C27.5705 17.52 28.6505 17.664 28.6505 18.636C28.6505 19.488 27.9425 20.112 26.7305 20.112C25.3625 20.112 24.4025 19.32 24.4025 18.228H23.0345C23.0345 20.004 24.5705 21.3 26.6945 21.3C28.7705 21.3 30.0785 20.112 30.0785 18.456Z" fill="white"/>
<rect x="0.5" y="0.5" width="35" height="33" rx="6.5" stroke="white" stroke-opacity="0.2"/>
</svg>
