<svg width="36" height="34" viewBox="0 0 36 34" fill="none" xmlns="http://www.w3.org/2000/svg">
<rect x="1" y="1" width="34" height="32" rx="6" fill="white" fill-opacity="0.1"/>
<path d="M18.0283 17C18.0283 14.7909 19.8192 13 22.0283 13C24.2374 13 26.0283 14.7909 26.0283 17C26.0283 19.2092 24.2374 21 22.0283 21C19.8191 21 18.0283 19.2091 18.0283 17Z" fill="#00BCFF"/>
<path d="M10.0283 25C10.0283 22.7909 11.8192 21.0001 14.0283 21.0001L16.1599 19.8746L18.0283 21.0001V25C18.0283 27.2092 16.2374 29 14.0283 29C11.8192 29 10.0283 27.2092 10.0283 25Z" fill="#00CF7F"/>
<path d="M18.0282 5L15.8516 8.78141L18.0282 13H21.972C24.1812 13 25.972 11.2091 25.972 8.99998C25.972 6.79086 24.1812 5 21.972 5H18.0282Z" fill="#FF7361"/>
<path d="M9.97168 8.99998C9.97168 11.2091 11.7625 13 13.9717 13L16.0936 13.8195L18.0278 13V5H13.9716C11.7625 5 9.97168 6.79086 9.97168 8.99998Z" fill="#FF4D12"/>
<path d="M10.0283 17C10.0283 19.2092 11.8192 21 14.0283 21H18.0283V13H14.0283C11.8192 13 10.0283 14.7909 10.0283 17Z" fill="#B659FF"/>
<rect x="0.5" y="0.5" width="35" height="33" rx="6.5" stroke="white" stroke-opacity="0.2"/>
</svg>
