<svg width="36" height="34" viewBox="0 0 36 34" fill="none" xmlns="http://www.w3.org/2000/svg">
<rect x="1" y="1" width="34" height="32" rx="6" fill="white" fill-opacity="0.1"/>
<path opacity="0.8" d="M8.59508 13.692C9.89108 13.692 10.8151 14.424 10.8151 15.456C10.8271 16.476 9.89108 17.208 8.59508 17.208H6.93908V13.692H8.59508ZM8.82308 18.408C10.8271 18.408 12.2551 17.172 12.2551 15.456C12.2551 13.74 10.8271 12.504 8.83508 12.504H5.54708V21H6.93908V18.408H8.82308ZM15.6663 12.504H13.9143V21H15.3303V14.256L19.2423 21H20.9943V12.504H19.5903V19.248L15.6663 12.504ZM27.4198 20.052C25.5598 20.052 24.2158 18.66 24.2158 16.752C24.2158 14.82 25.5358 13.464 27.3958 13.464C28.6558 13.464 29.8078 14.292 30.1198 15.456L31.4758 15.204C31.0798 13.464 29.3878 12.204 27.3958 12.204C24.7078 12.204 22.7758 14.112 22.7758 16.752C22.7758 19.392 24.7078 21.3 27.3958 21.3C30.2158 21.3 32.0758 19.176 31.8478 16.248H27.3598V17.304H30.4318C30.4198 18.852 29.0878 20.052 27.4198 20.052Z" fill="white"/>
<rect x="0.5" y="0.5" width="35" height="33" rx="6.5" stroke="white" stroke-opacity="0.2"/>
</svg>
