<svg width="36" height="34" viewBox="0 0 36 34" fill="none" xmlns="http://www.w3.org/2000/svg">
<rect x="1" y="1" width="34" height="32" rx="6" fill="white" fill-opacity="0.1"/>
<path opacity="0.8" d="M12.8988 18.456C12.8988 16.548 11.1828 16.26 9.59877 16.044C8.37477 15.876 7.39077 15.72 7.39077 14.748C7.39077 13.968 8.13477 13.392 9.28677 13.392C10.4988 13.392 11.3748 14.112 11.3748 15.12H12.7068C12.7068 13.428 11.2668 12.204 9.27477 12.204C7.29477 12.204 5.96277 13.32 5.96277 14.892C5.96277 16.848 7.59477 17.136 9.19077 17.352C10.3908 17.52 11.4708 17.664 11.4708 18.636C11.4708 19.488 10.7628 20.112 9.55077 20.112C8.18277 20.112 7.22277 19.32 7.22277 18.228H5.85477C5.85477 20.004 7.39077 21.3 9.51477 21.3C11.5908 21.3 12.8988 20.112 12.8988 18.456ZM13.4275 12.504L16.3555 21H18.5275L21.4555 12.504H19.9435L17.4475 19.944L14.9395 12.504H13.4275ZM26.7401 20.052C24.8801 20.052 23.5361 18.66 23.5361 16.752C23.5361 14.82 24.8561 13.464 26.7161 13.464C27.9761 13.464 29.1281 14.292 29.4401 15.456L30.7961 15.204C30.4001 13.464 28.7081 12.204 26.7161 12.204C24.0281 12.204 22.0961 14.112 22.0961 16.752C22.0961 19.392 24.0281 21.3 26.7161 21.3C29.5361 21.3 31.3961 19.176 31.1681 16.248H26.6801V17.304H29.7521C29.7401 18.852 28.4081 20.052 26.7401 20.052Z" fill="white"/>
<rect x="0.5" y="0.5" width="35" height="33" rx="6.5" stroke="white" stroke-opacity="0.2"/>
</svg>
