<svg width="1096" height="461" viewBox="0 0 1096 461" fill="none" xmlns="http://www.w3.org/2000/svg">
<rect width="1096" height="461" fill="white"/>
<path d="M445.813 166.273H415.913C415.364 166.273 415.015 165.68 415.279 165.194L429.013 139.891C430.332 137.461 428.587 134.494 425.839 134.494H396.215C394.892 134.494 393.675 135.221 393.04 136.39L372.705 173.854C371.386 176.284 373.131 179.251 375.879 179.251H406.31C406.861 179.251 407.21 179.847 406.943 180.333L393.23 205.334C391.826 207.893 393.662 211.031 396.563 211.031H425.474C426.861 211.031 428.137 210.272 428.808 209.049L449.147 171.97C450.551 169.412 448.715 166.273 445.813 166.273Z" fill="url(#paint0_linear_243_7610)"/>
<path d="M458.974 197.899L466.922 197.202C467.958 201.817 471.846 204.69 478.325 204.69C484.545 204.69 488.432 201.904 488.432 197.986C488.432 195.112 486.532 193.023 481.435 192.413L473.228 191.368C465.712 190.498 459.837 187.363 459.837 179.961C459.837 172.124 466.835 166.029 476.856 166.029C487.223 166.029 493.357 171.863 494.134 180.048L486.791 180.571C486.099 175.782 482.731 172.647 476.856 172.647C471.155 172.647 467.612 175.782 467.612 179.7C467.612 182.661 469.686 184.489 474.178 185.012L482.472 186.056C490.679 187.101 496.38 190.236 496.38 197.725C496.38 205.299 489.814 211.308 478.325 211.308C467.267 211.308 460.442 205.56 458.974 197.899Z" fill="#262261"/>
<path d="M502.944 166.9H511.238V176.479C514.261 169.6 519.877 166.378 526.269 166.378C535.34 166.378 543.547 173.257 543.547 188.756C543.547 204.429 535.34 210.959 526.269 210.959C519.877 210.959 514.261 207.911 511.238 201.033V231.335H502.944V166.9ZM535.081 188.756C535.081 178.307 529.897 173.518 523.332 173.518C516.767 173.518 511.324 179.091 511.324 188.756C511.324 198.334 516.767 203.82 523.332 203.82C529.898 203.82 535.081 199.117 535.081 188.756Z" fill="#262261"/>
<path d="M549.851 199.465C549.851 185.012 566.006 185.969 579.741 186.84V181.964C579.741 176.827 576.632 172.995 570.585 172.995C564.537 172.995 560.39 176.653 559.699 182.748L551.751 182.312C552.701 171.776 560.736 166.029 570.585 166.029C580.95 166.029 587.949 171.863 587.949 183.009V210.437H581.729L580.001 201.294C577.754 207.563 572.571 211.308 564.538 211.308C555.466 211.308 549.851 206.519 549.851 199.465ZM579.742 192.761V191.455C569.375 191.107 558.058 191.281 558.058 198.595C558.058 202.339 560.822 204.777 566.265 204.777C574.472 204.777 579.742 199.552 579.742 192.761Z" fill="#262261"/>
<path d="M595.118 231.161V223.759C597.019 223.846 598.92 223.933 599.869 223.933C604.621 223.933 606.866 221.93 609.199 216.271L611.273 211.133L593.044 166.901H602.375L615.246 202.339L627.255 166.901H636.498L616.974 217.229C612.828 228.2 608.508 231.422 601.337 231.422C599.524 231.422 597.623 231.335 595.118 231.161Z" fill="#262261"/>
<path d="M638.655 188.755C638.655 175.172 646.517 166.029 658.784 166.029C670.792 166.029 678.48 174.998 678.48 188.581C678.48 189.452 678.48 190.323 678.394 191.02H646.69C647.121 199.378 651.873 204.603 659.215 204.603C665.177 204.603 669.323 201.381 670.706 195.896L678.135 196.592C675.889 205.996 668.892 211.308 659.215 211.308C647.208 211.308 638.655 202.687 638.655 188.755ZM670.62 185.099C669.928 177.001 665.091 172.734 658.784 172.734C652.477 172.734 647.467 177.001 646.862 185.099H670.62Z" fill="#262261"/>
<path d="M683.922 188.755C683.922 175.172 691.783 166.029 704.05 166.029C716.059 166.029 723.747 174.998 723.747 188.581C723.747 189.452 723.747 190.323 723.661 191.02H691.956C692.388 199.378 697.14 204.603 704.482 204.603C710.444 204.603 714.59 201.381 715.973 195.896L723.401 196.592C721.155 205.996 714.158 211.308 704.482 211.308C692.474 211.308 683.922 202.687 683.922 188.755ZM715.886 185.099C715.194 177.001 710.357 172.734 704.05 172.734C697.744 172.734 692.733 177.001 692.129 185.099H715.886Z" fill="#262261"/>
<rect x="372" y="297.91" width="117.333" height="25.5449" fill="#1350F3"/>
<rect x="372" y="323.455" width="352" height="25.5449" fill="url(#paint1_linear_243_7610)"/>
<rect x="489.333" y="297.91" width="117.333" height="25.5449" fill="#262261"/>
<rect x="606.667" y="297.91" width="117.333" height="25.5449" fill="#54DAFF"/>
<defs>
<linearGradient id="paint0_linear_243_7610" x1="395.021" y1="134.908" x2="426.769" y2="209.361" gradientUnits="userSpaceOnUse">
<stop stop-color="#5ADAFF"/>
<stop offset="1" stop-color="#1350F3"/>
</linearGradient>
<linearGradient id="paint1_linear_243_7610" x1="770.933" y1="353.731" x2="357.835" y2="298.908" gradientUnits="userSpaceOnUse">
<stop stop-color="#1453F3"/>
<stop offset="1" stop-color="#58D6FE"/>
</linearGradient>
</defs>
</svg>
